<svg width="64" height="65" viewBox="0 0 64 65" fill="none" xmlns="http://www.w3.org/2000/svg">
<rect x="61.4712" y="62.707" width="58.9423" height="60.414" rx="29.4711" transform="rotate(-180 61.4712 62.707)" stroke="black" stroke-width="4.58601"/>
<path d="M15.2159 31.086C14.4349 31.8671 14.4349 33.1334 15.2159 33.9145L27.9438 46.6424C28.7249 47.4234 29.9912 47.4234 30.7723 46.6424C31.5533 45.8613 31.5533 44.595 30.7723 43.814L19.4586 32.5002L30.7723 21.1865C31.5533 20.4055 31.5533 19.1392 30.7723 18.3581C29.9912 17.5771 28.7249 17.5771 27.9438 18.3581L15.2159 31.086ZM47.3696 30.5002L16.6301 30.5002L16.6301 34.5002L47.3696 34.5002L47.3696 30.5002Z" fill="black"/>
</svg>
